<svg width="25" height="25" viewBox="0 0 25 25" fill="none" xmlns="http://www.w3.org/2000/svg">
<path fill-rule="evenodd" clip-rule="evenodd" d="M12.5 23.5C19.1274 23.5 24.5 18.3513 24.5 12C24.5 5.64873 19.1274 0.5 12.5 0.5C5.87258 0.5 0.5 5.64873 0.5 12C0.5 13.7106 0.940189 15.5085 1.82057 17.3935L2.01595 17.7988C2.67754 19.1297 2.71277 20.6859 2.11209 22.0453C1.55503 23.306 1.46023 24.0895 1.82767 24.3957C2.23008 24.731 3.3886 24.4695 5.30322 23.6111L5.81984 23.3736C6.80936 22.9082 7.92171 22.7812 8.98647 23.0073L9.25157 23.0712C10.3097 23.3571 11.3925 23.5 12.5 23.5Z" fill="#8A94A6"/>
</svg>
