<svg width="198" height="216" viewBox="0 0 198 216" fill="none" xmlns="http://www.w3.org/2000/svg">
<g filter="url(#filter0_d_2675_64131)">
<path fill-rule="evenodd" clip-rule="evenodd" d="M43.7096 8.63916C28.9706 8.63916 16.6282 20.7741 16.6282 35.1865V143.418C16.6282 157.83 28.9706 169.965 43.7096 169.965H67.6662L62.4582 183.239C60.9103 187.468 64.1887 192.208 68.7077 191.407C82.5495 188.956 98.5971 181.215 109.33 173.028C110.949 171.796 113.03 171.253 114.538 169.965H154.118C168.859 169.965 181.2 157.83 181.2 143.418V35.1865C181.2 20.7741 168.859 8.63916 154.118 8.63916H43.7096Z" fill="url(#paint0_linear_2675_64131)"/>
<path fill-rule="evenodd" clip-rule="evenodd" d="M43.7096 8.63916C28.9706 8.63916 16.6282 20.7741 16.6282 35.1865V143.418C16.6282 157.83 28.9706 169.965 43.7096 169.965H67.6662L62.4582 183.239C60.9103 187.468 64.1887 192.208 68.7077 191.407C82.5495 188.956 98.5971 181.215 109.33 173.028C110.949 171.796 113.03 171.253 114.538 169.965H154.118C168.859 169.965 181.2 157.83 181.2 143.418V35.1865C181.2 20.7741 168.859 8.63916 154.118 8.63916H43.7096Z" fill="url(#paint1_linear_2675_64131)"/>
<path fill-rule="evenodd" clip-rule="evenodd" d="M43.7096 8.63916C28.9706 8.63916 16.6282 20.7741 16.6282 35.1865V143.418C16.6282 157.83 28.9706 169.965 43.7096 169.965H67.6662L62.4582 183.239C60.9103 187.468 64.1887 192.208 68.7077 191.407C82.5495 188.956 98.5971 181.215 109.33 173.028C110.949 171.796 113.03 171.253 114.538 169.965H154.118C168.859 169.965 181.2 157.83 181.2 143.418V35.1865C181.2 20.7741 168.859 8.63916 154.118 8.63916H43.7096Z" fill="url(#paint2_linear_2675_64131)" fill-opacity="0.5"/>
<mask id="mask0_2675_64131" style="mask-type:alpha" maskUnits="userSpaceOnUse" x="16" y="8" width="166" height="184">
<path fill-rule="evenodd" clip-rule="evenodd" d="M43.7096 8.63916C28.9706 8.63916 16.6282 20.7741 16.6282 35.1865V143.418C16.6282 157.83 28.9706 169.965 43.7096 169.965H67.6662L62.4582 183.239C60.9103 187.468 64.1887 192.208 68.7077 191.407C82.5495 188.956 98.5971 181.215 109.33 173.028C110.949 171.796 113.03 171.253 114.538 169.965H154.118C168.859 169.965 181.2 157.83 181.2 143.418V35.1865C181.2 20.7741 168.859 8.63916 154.118 8.63916H43.7096Z" fill="url(#paint3_linear_2675_64131)"/>
<path fill-rule="evenodd" clip-rule="evenodd" d="M43.7096 8.63916C28.9706 8.63916 16.6282 20.7741 16.6282 35.1865V143.418C16.6282 157.83 28.9706 169.965 43.7096 169.965H67.6662L62.4582 183.239C60.9103 187.468 64.1887 192.208 68.7077 191.407C82.5495 188.956 98.5971 181.215 109.33 173.028C110.949 171.796 113.03 171.253 114.538 169.965H154.118C168.859 169.965 181.2 157.83 181.2 143.418V35.1865C181.2 20.7741 168.859 8.63916 154.118 8.63916H43.7096Z" fill="url(#paint4_linear_2675_64131)"/>
<path fill-rule="evenodd" clip-rule="evenodd" d="M43.7096 8.63916C28.9706 8.63916 16.6282 20.7741 16.6282 35.1865V143.418C16.6282 157.83 28.9706 169.965 43.7096 169.965H67.6662L62.4582 183.239C60.9103 187.468 64.1887 192.208 68.7077 191.407C82.5495 188.956 98.5971 181.215 109.33 173.028C110.949 171.796 113.03 171.253 114.538 169.965H154.118C168.859 169.965 181.2 157.83 181.2 143.418V35.1865C181.2 20.7741 168.859 8.63916 154.118 8.63916H43.7096Z" fill="url(#paint5_linear_2675_64131)" fill-opacity="0.35"/>
</mask>
<g mask="url(#mask0_2675_64131)">
<g style="mix-blend-mode:soft-light">
<path d="M16.6282 34.8129C16.6282 20.3576 28.5765 8.63916 43.3154 8.63916H154.512C169.253 8.63916 181.2 20.3576 181.2 34.8129V143.87C181.2 158.325 169.253 170.044 154.512 170.044H43.3154C28.5765 170.044 16.6282 158.325 16.6282 143.87V34.8129Z" fill="white" fill-opacity="0.05"/>
</g>
<g filter="url(#filter1_f_2675_64131)">
<path d="M91.1022 188.432C112.674 188.432 130.162 180.199 130.162 170.044C130.162 159.889 112.674 151.656 91.1022 151.656C69.5301 151.656 52.0425 159.889 52.0425 170.044C52.0425 180.199 69.5301 188.432 91.1022 188.432Z" fill="#E97618"/>
</g>
<path d="M103.226 35.1992H105.798C109.748 35.3532 113.703 36.0717 117.365 37.5541C119.848 38.5562 122.296 39.8271 124.127 41.794C125.191 42.9353 126.029 44.2845 126.57 45.739C127.186 47.4266 127.417 49.2404 127.328 51.0272C127.235 52.6991 126.863 54.3711 126.131 55.8891C125.555 57.0078 124.983 58.1369 124.233 59.1573C123.293 60.4535 122.092 61.593 120.646 62.3298C118.917 63.205 116.878 63.5486 114.967 63.1302C112.475 62.6265 110.338 60.7631 109.491 58.4196C109.336 57.7002 109.438 56.9216 109.757 56.257C109.952 55.8282 110.462 55.7073 110.892 55.6533C111.832 55.5463 112.723 55.9282 113.645 56.0117C114.266 56.0918 114.776 55.6089 115.069 55.1218C115.397 54.6329 115.459 54.0362 115.463 53.4664C115.463 52.5016 115.481 51.5256 115.273 50.5765C115.109 49.7719 114.674 49.0542 114.222 48.3757C113.521 47.3466 112.457 46.6333 111.371 46.0417C109.642 45.05 107.633 44.6516 105.656 44.5159C103.962 44.3828 102.251 44.4663 100.583 44.8091C97.4886 45.4772 94.7131 47.2335 92.5715 49.4953C90.7759 51.3429 89.2994 53.569 88.7053 56.0778C88.1289 58.4944 88.3816 61.1068 89.4812 63.3494C90.4123 65.2658 91.871 66.896 93.5647 68.2035C96.0432 70.2182 98.7301 71.9701 101.528 73.5255C103.208 74.4824 104.991 75.2471 106.742 76.07C108.502 76.906 110.24 77.7837 111.961 78.6971C113.02 79.2774 114.107 79.8228 115.153 80.4326C116.678 81.3303 118.128 82.3568 119.476 83.4999C120.482 84.3341 121.374 85.291 122.349 86.16C123.657 87.3788 124.85 88.7089 125.954 90.1051C126.65 90.9976 127.333 91.9049 127.927 92.8705C129.456 95.3437 130.489 98.1143 130.928 100.977C131.084 101.938 131.146 102.909 131.203 103.879V105.445C131.119 107.602 130.924 109.763 130.463 111.878C129.771 115.183 128.516 118.382 126.694 121.249C125.116 123.74 123.129 125.97 120.877 127.895C118.718 129.711 116.368 131.309 113.907 132.711C110.794 134.472 107.469 135.881 104.002 136.822C101.191 137.604 98.2867 137.985 95.3914 138.294C95.0323 138.847 94.6998 139.417 94.3628 139.985C93.5514 141.396 92.8908 142.921 91.7602 144.128C90.603 145.416 88.9935 146.402 87.2155 146.531C85.7568 146.652 84.2848 146.131 83.1586 145.224C81.7353 144.044 80.9018 142.26 80.7111 140.457C80.618 139.909 80.9861 139.299 81.5669 139.208C83.2517 138.881 84.9188 138.39 86.4573 137.635C86.6746 137.525 86.9052 137.438 87.0914 137.283C87.1845 137.019 86.8608 136.889 86.6569 136.834C85.2647 136.487 83.8502 136.199 82.4713 135.792C80.6269 135.268 78.8179 134.636 77.0444 133.914C75.7009 133.361 74.3575 132.784 73.1249 132.015C71.1075 130.546 69.1788 128.905 67.7024 126.897C66.2525 124.915 65.7781 122.442 65.583 120.059V118.58C65.6451 118.01 65.7249 117.44 65.8668 116.883C66.452 114.442 67.9418 112.269 69.8705 110.647C72.482 108.44 75.967 107.196 79.4253 107.432C82.223 107.608 84.9055 108.714 87.1401 110.349C89.4457 112.027 91.3301 114.219 92.8066 116.625C94.4249 119.274 95.5998 122.186 96.2339 125.213C96.2959 125.499 96.3225 125.796 96.4334 126.071C97.7591 125.789 99.036 125.331 100.295 124.853C103.018 123.776 105.594 122.339 107.877 120.526C109.717 119.06 111.375 117.356 112.674 115.406C114.018 113.387 114.998 111.11 115.37 108.718C115.481 107.934 115.636 107.145 115.579 106.35C115.499 105.42 115.308 104.5 115.015 103.614C114.169 101.09 112.546 98.892 110.67 97.0069C108.276 94.5538 105.532 92.4408 102.57 90.6879C98.0828 88.1495 93.5824 85.6294 89.0644 83.1467C84.6483 80.7805 80.5914 77.735 77.2616 74.0266C75.3152 71.9214 73.7855 69.4248 72.9475 66.6985C71.9677 63.5573 71.9987 60.1986 72.5219 56.9808C73.1959 52.9079 75.0713 49.0325 77.8868 45.9643C79.7091 43.954 81.8772 42.2689 84.2005 40.8475C86.7766 39.2791 89.5211 37.9673 92.4119 37.0556C95.9013 35.9308 99.5592 35.3454 103.226 35.1992ZM74.2732 117.578C73.8609 118.286 73.7722 119.125 73.7989 119.926C73.8654 121.137 74.5127 122.265 75.4172 123.072C76.6454 124.185 78.1927 124.868 79.7445 125.429C80.5604 125.709 81.3629 126.032 82.1964 126.257C83.5842 126.645 85.0075 126.873 86.4219 127.12C86.8963 127.196 87.3618 127.312 87.8451 127.307C86.9628 124.261 85.3932 121.404 83.2828 119.012C82.6 118.228 81.8417 117.5 80.9638 116.928C79.9795 116.277 78.84 115.806 77.6429 115.749C76.2906 115.694 74.9694 116.455 74.2732 117.578Z" fill="white"/>
</g>
</g>
<defs>
<filter id="filter0_d_2675_64131" x="0.214355" y="0.571289" width="196.985" height="214.925" filterUnits="userSpaceOnUse" color-interpolation-filters="sRGB">
<feFlood flood-opacity="0" result="BackgroundImageFix"/>
<feColorMatrix in="SourceAlpha" type="matrix" values="0 0 0 0 0 0 0 0 0 0 0 0 0 0 0 0 0 0 127 0" result="hardAlpha"/>
<feOffset dy="8"/>
<feGaussianBlur stdDeviation="8"/>
<feColorMatrix type="matrix" values="0 0 0 0 0.937255 0 0 0 0 0.470588 0 0 0 0 0.0509804 0 0 0 0.2 0"/>
<feBlend mode="normal" in2="BackgroundImageFix" result="effect1_dropShadow_2675_64131"/>
<feBlend mode="normal" in="SourceGraphic" in2="effect1_dropShadow_2675_64131" result="shape"/>
</filter>
<filter id="filter1_f_2675_64131" x="-21.9575" y="77.6562" width="226.119" height="184.776" filterUnits="userSpaceOnUse" color-interpolation-filters="sRGB">
<feFlood flood-opacity="0" result="BackgroundImageFix"/>
<feBlend mode="normal" in="SourceGraphic" in2="BackgroundImageFix" result="shape"/>
<feGaussianBlur stdDeviation="37" result="effect1_foregroundBlur_2675_64131"/>
</filter>
<linearGradient id="paint0_linear_2675_64131" x1="16.6282" y1="8.63916" x2="199.398" y2="172.672" gradientUnits="userSpaceOnUse">
<stop stop-color="#00B1FF"/>
<stop offset="1" stop-color="#006BFF"/>
</linearGradient>
<linearGradient id="paint1_linear_2675_64131" x1="16.6282" y1="8.63916" x2="87.5643" y2="207.424" gradientUnits="userSpaceOnUse">
<stop stop-color="#FCBF22"/>
<stop offset="1" stop-color="#DD7021"/>
</linearGradient>
<linearGradient id="paint2_linear_2675_64131" x1="99.2386" y1="8.63916" x2="99.2386" y2="193.055" gradientUnits="userSpaceOnUse">
<stop stop-color="#FD9D04"/>
<stop offset="1" stop-color="#FA7302"/>
</linearGradient>
<linearGradient id="paint3_linear_2675_64131" x1="16.6282" y1="8.63916" x2="199.398" y2="172.672" gradientUnits="userSpaceOnUse">
<stop stop-color="#00B1FF"/>
<stop offset="1" stop-color="#006BFF"/>
</linearGradient>
<linearGradient id="paint4_linear_2675_64131" x1="16.6282" y1="8.63916" x2="87.5643" y2="207.424" gradientUnits="userSpaceOnUse">
<stop stop-color="#FCBF22"/>
<stop offset="1" stop-color="#DD7021"/>
</linearGradient>
<linearGradient id="paint5_linear_2675_64131" x1="99.2386" y1="8.63916" x2="99.2386" y2="193.055" gradientUnits="userSpaceOnUse">
<stop stop-color="#FD9D04"/>
<stop offset="1" stop-color="#FA7302"/>
</linearGradient>
</defs>
</svg>
